# xmcd
#
# Track frame offsets: 
#        150
#        19646
#        33318
#        48912
#        64455
#        77259
#        112308
#        126238
#        138663
#        156886
#        167856
#        172846
#        178294
#        187191
#        194073
#        201308
#        211929
#
# Disc length: 2851 seconds
#
# Revision: 4
# Processed by: cddbd v1.5.2PL0 Copyright (c) Steve Scherf et al.
# Submitted via: ExactAudioCopy v0.99pb3
#
DISCID=010b2111
DTITLE=Beatles - Abbey Road (2009 Japan RemasterSet Box)
DYEAR=1969
DGENRE=Classic Rock
TTITLE0=Come Together
TTITLE1=Something
TTITLE2=Maxwell's Silver Hammer
TTITLE3=Oh! Darling
TTITLE4=Octopus's Garden
TTITLE5=I Want You (She's So Heavy)
TTITLE6=Here Comes The Sun
TTITLE7=Because
TTITLE8=You Never Give Me Your Money
TTITLE9=Sun King
TTITLE10=Mean Mr. Mustard
TTITLE11=Polythene Pam
TTITLE12=She Came In Through The Bathroom Window
TTITLE13=Golden Slumbers
TTITLE14=Carry That Weight
TTITLE15=The End
TTITLE16=Her Majesty
EXTD=
EXTT0=
EXTT1=
EXTT2=
EXTT3=
EXTT4=
EXTT5=
EXTT6=
EXTT7=
EXTT8=
EXTT9=
EXTT10=
EXTT11=
EXTT12=
EXTT13=
EXTT14=
EXTT15=
EXTT16=
PLAYORDER=
